<svg id="sw-js-blob-svg" viewBox="0 0 100 100" xmlns="http://www.w3.org/2000/svg" version="1.1"><defs><linearGradient id="sw-gradient" x1="0" x2="1" y1="1" y2="0"><stop id="stop1" stop-color="rgba(249, 218, 255, 1)" offset="0%"/><stop id="stop2" stop-color="rgba(249, 218, 255, 1)" offset="100%"/></linearGradient></defs><path fill="url('#sw-gradient')" d="M25.8-30.8c7.7 6.5 13.9 14.6 15.7 23.6 1.7 9-1.1 19-6.2 27.2-5.2 8.2-12.8 14.6-21 16.2-8.1 1.5-16.9-1.7-25.2-5.2s-16.2-7.1-22.3-13.7c-6-6.6-10.1-16.1-8.2-24.2 2-8 10-14.5 17.9-20.9C-15.6-34.1-7.8-40.4.6-41.1c8.5-.8 17.6 3.9 25.2 10.3Z" transform="translate(50 50)" stroke-width="0" style="transition:all .3s"/></svg>