<!--?xml version="1.0" standalone="no"?-->
              <svg id="sw-js-blob-svg" viewBox="0 0 100 100" xmlns="http://www.w3.org/2000/svg" version="1.1">
                    <defs> 
                        <linearGradient id="sw-gradient" x1="0" x2="1" y1="1" y2="0">
                            <stop id="stop1" stop-color="rgba(249, 218, 255, 1)" offset="0%"></stop>
                            <stop id="stop2" stop-color="rgba(249, 218, 255, 1)" offset="100%"></stop>
                        </linearGradient>
                    </defs>
                <path fill="url(#sw-gradient)" d="M25.8,-30.8C33.5,-24.3,39.7,-16.2,41.5,-7.2C43.2,1.8,40.4,11.8,35.3,20C30.1,28.2,22.5,34.6,14.3,36.2C6.2,37.7,-2.6,34.5,-10.9,31C-19.2,27.5,-27.1,23.9,-33.2,17.3C-39.2,10.7,-43.3,1.2,-41.4,-6.9C-39.4,-14.9,-31.4,-21.4,-23.5,-27.8C-15.6,-34.1,-7.8,-40.4,0.6,-41.1C9.1,-41.9,18.2,-37.2,25.8,-30.8Z" width="100%" height="100%" transform="translate(50 50)" stroke-width="0" style="transition: all 0.3s ease 0s;"></path>
              </svg>